<?xml version="1.0" encoding="utf-8"?>
<!-- Generator: Adobe Illustrator 23.0.4, SVG Export Plug-In . SVG Version: 6.00 Build 0)  -->
<svg version="1.1" id="Layer_1" xmlns="http://www.w3.org/2000/svg" xmlns:xlink="http://www.w3.org/1999/xlink" x="0px" y="0px"
	 viewBox="0 0 299 42" style="enable-background:new 0 0 299 42;" xml:space="preserve">
<style type="text/css">
	.st0{fill:none;}
	.st1{fill:#FFFFFF;}
	.st2{fill:#EC6607;}
</style>
<rect class="st0" width="299" height="42"/>
<path class="st1" d="M14.5,22.4c0,4-2.7,6.8-6.7,6.8H4.2V15.6h3.7C11.9,15.6,14.5,18.3,14.5,22.4z M7.8,11.8H0.3
	c-0.2,0-0.3,0.1-0.3,0.3v20.7C0,32.9,0.1,33,0.3,33h7.5c6.4,0,10.9-4.4,10.9-10.6C18.8,16.1,14.3,11.8,7.8,11.8z"/>
<path class="st1" d="M34.1,25.3h-6.8l3.4-9.3L34.1,25.3z M33.2,12c0-0.1-0.2-0.2-0.3-0.2h-4.4c-0.1,0-0.2,0.1-0.3,0.2l-8,20.7
	c0,0.1,0,0.2,0,0.3c0.1,0.1,0.1,0.1,0.2,0.1h3.9c0.1,0,0.2-0.1,0.3-0.2l1.4-3.8h9.2l1.4,3.8c0,0.1,0.2,0.2,0.3,0.2h3.9
	c0.1,0,0.2-0.1,0.2-0.1c0.1-0.1,0.1-0.2,0-0.3L33.2,12z"/>
<path class="st1" d="M57.4,15.3v-3.2c0-0.2-0.1-0.3-0.3-0.3H41.3c-0.2,0-0.3,0.1-0.3,0.3v3.2c0,0.2,0.1,0.3,0.3,0.3h5.8v17.2
	c0,0.2,0.1,0.3,0.3,0.3H51c0.2,0,0.3-0.1,0.3-0.3V15.6h5.9C57.3,15.6,57.4,15.4,57.4,15.3z"/>
<path class="st1" d="M71.1,25.3h-6.8l3.4-9.3L71.1,25.3z M70.2,12c0-0.1-0.2-0.2-0.3-0.2h-4.4c-0.1,0-0.2,0.1-0.3,0.2l-8,20.7
	c0,0.1,0,0.2,0,0.3c0.1,0.1,0.2,0.1,0.2,0.1h3.9c0.1,0,0.2-0.1,0.3-0.2l1.4-3.8h9.2l1.4,3.8c0,0.1,0.2,0.2,0.3,0.2h3.9
	c0.1,0,0.2-0.1,0.2-0.1c0.1-0.1,0.1-0.2,0-0.3L70.2,12z"/>
<path class="st1" d="M102.2,11.8h-2c-0.1,0-0.2,0.1-0.3,0.2l-7.1,18l-7.1-18c0-0.1-0.1-0.2-0.3-0.2h-2c-0.1,0-0.2,0-0.2,0.1
	c-0.1,0.1-0.1,0.2,0,0.3l8.3,20.7c0,0.1,0.1,0.2,0.3,0.2h2.2c0.1,0,0.2-0.1,0.3-0.2l8.3-20.7c0-0.1,0-0.2,0-0.3
	C102.4,11.8,102.3,11.8,102.2,11.8z"/>
<path class="st1" d="M119.2,11.8h-12.9c-0.2,0-0.3,0.1-0.3,0.3v20.7c0,0.2,0.1,0.3,0.3,0.3h12.9c0.2,0,0.3-0.1,0.3-0.3v-1.6
	c0-0.2-0.1-0.3-0.3-0.3h-10.8v-7.6H119c0.2,0,0.3-0.1,0.3-0.3v-1.6c0-0.2-0.1-0.3-0.3-0.3h-10.6V14h10.8c0.2,0,0.3-0.1,0.3-0.3v-1.6
	C119.5,11.9,119.4,11.8,119.2,11.8z"/>
<path class="st1" d="M141.5,11.8h-1.7c-0.2,0-0.3,0.1-0.3,0.3v16.7l-12.2-16.9c-0.1-0.1-0.1-0.1-0.2-0.1h-1.8
	c-0.2,0-0.3,0.1-0.3,0.3v20.7c0,0.2,0.1,0.3,0.3,0.3h1.7c0.2,0,0.3-0.1,0.3-0.3V15.8l12.2,17.1c0.1,0.1,0.2,0.1,0.2,0.1h1.7
	c0.2,0,0.3-0.1,0.3-0.3V12.1C141.8,11.9,141.7,11.8,141.5,11.8z"/>
<path class="st1" d="M161.3,11.8h-15c-0.2,0-0.3,0.1-0.3,0.3v1.6c0,0.2,0.1,0.3,0.3,0.3h6.3v18.8c0,0.2,0.1,0.3,0.3,0.3h1.8
	c0.2,0,0.3-0.1,0.3-0.3V14h6.3c0.2,0,0.3-0.1,0.3-0.3v-1.6C161.6,11.9,161.5,11.8,161.3,11.8z"/>
<path class="st1" d="M181.4,11.8h-1.8c-0.2,0-0.3,0.1-0.3,0.3v12.7c0,4.1-2.1,6.4-5.8,6.4c-3.7,0-5.9-2.3-5.9-6.4V12.1
	c0-0.2-0.1-0.3-0.3-0.3h-1.8c-0.2,0-0.3,0.1-0.3,0.3v12.8c0,5.5,3,8.6,8.2,8.6s8.2-3.1,8.2-8.6V12.1
	C181.6,11.9,181.5,11.8,181.4,11.8z"/>
<path class="st1" d="M199.2,18.1c0,2.4-1.7,4.2-4.2,4.2h-5.4V14h5.4C197.5,14,199.2,15.6,199.2,18.1z M196.3,24.3
	c2.8-0.3,5.4-2.3,5.4-6.2c0-3.8-2.6-6.4-6.5-6.4h-7.6c-0.2,0-0.3,0.1-0.3,0.3v20.7c0,0.2,0.1,0.3,0.3,0.3h1.7c0.2,0,0.3-0.1,0.3-0.3
	v-8.3h4l5.6,8.4c0.1,0.1,0.1,0.1,0.2,0.1h2.1c0.1,0,0.2-0.1,0.3-0.2c0.1-0.1,0-0.2,0-0.3L196.3,24.3z"/>
<path class="st1" d="M220.3,11.8h-12.9c-0.2,0-0.3,0.1-0.3,0.3v20.7c0,0.2,0.1,0.3,0.3,0.3h12.9c0.2,0,0.3-0.1,0.3-0.3v-1.6
	c0-0.2-0.1-0.3-0.3-0.3h-10.8v-7.6h10.6c0.2,0,0.3-0.1,0.3-0.3v-1.6c0-0.2-0.1-0.3-0.3-0.3h-10.6V14h10.8c0.2,0,0.3-0.1,0.3-0.3
	v-1.6C220.6,11.9,220.5,11.8,220.3,11.8z"/>
<path class="st1" d="M233.1,20.8c-3.1-0.8-5.1-1.5-5.1-3.6c0-2,1.9-3.5,4.5-3.5c2.3,0,4.3,0.9,5.6,2.5c0,0.1,0.1,0.1,0.2,0.1
	c0.1,0,0.2,0,0.2-0.1l1.2-1.3c0.1-0.1,0.1-0.3,0-0.4c-1.7-2-4.1-3-7.1-3c-4,0-7,2.4-7,5.8c0,4,3.6,5,6.8,5.9l0.1,0
	c3.1,0.8,5.4,1.6,5.4,4.2c0,1.9-1.3,3.8-5.1,3.8c-3.2,0-5.2-1.8-6.1-2.9c-0.1-0.1-0.1-0.1-0.2-0.1c-0.1,0-0.2,0-0.2,0.1l-1.1,1.3
	c-0.1,0.1-0.1,0.3,0,0.4c1.8,2.2,4.5,3.4,7.7,3.4c5.5,0,7.5-3.2,7.5-6.2C240.2,22.9,236.4,21.8,233.1,20.8z"/>
<path class="st2" d="M298.2,21.4c-1.1,11.5-7.5,20.6-19,20.6C267.8,42,257,31.9,257,20.3C257,8,264.8,0,277.2,0
	C287.3,0,299.3,8.8,298.2,21.4z"/>
</svg>
